<svg viewBox="0 0 400 120" xmlns="http://www.w3.org/2000/svg">
  <!-- Background -->
  <rect width="400" height="120" fill="#0d0d0d"/>
  
  <!-- Logo S scaled and positioned for header -->
  <g transform="translate(20, -200) scale(0.15)">
    <!-- Cyan line (upper half of S) -->
    <g id="cyan-line" transform="translate(321.25138,-135.98985)">
      <circle style="fill:#00ccff;fill-opacity:1" cx="575.56372" cy="405.13367" r="29.624107" />
      <ellipse style="fill:#00ccff;fill-opacity:1" cx="270.10355" cy="349.72092" rx="29.624119" ry="29.624107" />
      <circle style="fill:#00ccff;fill-opacity:1" cx="452.44336" cy="190.21948" r="29.624107" />
      <circle style="fill:#00ccff;fill-opacity:1" cx="452.95691" cy="539.40442" r="30" />
      <path style="fill:none;stroke:#00ccff;stroke-width:26.6;stroke-linecap:round;stroke-linejoin:round" 
            d="m 581.12452,404.30624 c 0,0 26.70683,-26.90145 47.03286,-55.47003 9.93599,-13.96521 -62.09362,-67.5611 -92.47083,-93.8939 -104.13141,-90.2674 -67.6066,-86.69128 -197.58322,34.46902 -82.12697,76.55629 -88.54187,48.59313 17.48264,152.69776 67.05873,65.84444 58.86726,53.16377 99.12459,99.60244" />
    </g>
    <!-- Magenta line (lower half of S) -->
    <g id="magenta-line" transform="translate(321.25138,-135.98985) rotate(-179.08102,455.74471,467.75967)">
      <circle style="fill:#C80064;fill-opacity:1" cx="575.56372" cy="405.13367" r="29.624107" />
      <ellipse style="fill:#C80064;fill-opacity:1" cx="270.10355" cy="349.72092" rx="29.624119" ry="29.624107" />
      <circle style="fill:#C80064;fill-opacity:1" cx="452.44336" cy="190.21948" r="29.624107" />
      <circle style="fill:#C80064;fill-opacity:1" cx="464.00256" cy="558.71246" r="30" />
      <path style="fill:none;stroke:#C80064;stroke-width:26.6;stroke-linecap:round;stroke-linejoin:round" 
            d="m 577.69231,400.96447 c 0,0 26.70683,-26.90145 47.03286,-55.47003 9.93599,-13.96521 -62.09362,-67.5611 -92.47083,-93.8939 -104.13141,-90.2674 -67.6066,-86.69128 -197.58322,34.46902 -82.12697,76.55629 -88.54187,48.59313 17.48264,152.69776 67.05873,65.84444 72.05717,68.02249 112.3145,114.46116" />
    </g>
  </g>
  
  <!-- Text: SYSNEX LABS -->
  <text x="120" y="45" font-family="Lexend Exa, sans-serif" font-size="32" font-weight="700" fill="#00ccff" letter-spacing="1px">SYSNEX</text>
  <text x="120" y="80" font-family="Lexend Exa, sans-serif" font-size="32" font-weight="700" fill="#C80064" letter-spacing="1px">LABS</text>
</svg>
