<svg viewBox="0 0 1200 300" xmlns="http://www.w3.org/2000/svg">
  <defs>
    <linearGradient id="editorGrad" x1="0%" y1="0%" x2="100%" y2="100%">
      <stop offset="0%" style="stop-color:#00ccff;stop-opacity:0.15" />
      <stop offset="100%" style="stop-color:#00ccff;stop-opacity:0.05" />
    </linearGradient>
    <linearGradient id="panelGrad" x1="0%" y1="0%" x2="100%" y2="100%">
      <stop offset="0%" style="stop-color:#ff6600;stop-opacity:0.15" />
      <stop offset="100%" style="stop-color:#ff6600;stop-opacity:0.05" />
    </linearGradient>
    <filter id="glow">
      <feGaussianBlur stdDeviation="3" result="coloredBlur"/>
      <feMerge>
        <feMergeNode in="coloredBlur"/>
        <feMergeNode in="SourceGraphic"/>
      </feMerge>
    </filter>
  </defs>
  
  <!-- Background -->
  <rect width="1200" height="300" fill="#0d0d0d"/>
  
  <!-- Abstract VS Code Interface -->
  
  <!-- Left Sidebar (File Explorer) -->
  <rect x="20" y="40" width="180" height="220" rx="8" fill="rgba(0,204,255,0.08)" stroke="#00ccff" stroke-width="2" opacity="0.6"/>
  <rect x="30" y="60" width="160" height="15" rx="3" fill="rgba(0,204,255,0.2)"/>
  <rect x="30" y="85" width="140" height="8" rx="2" fill="rgba(0,204,255,0.15)"/>
  <rect x="30" y="100" width="120" height="8" rx="2" fill="rgba(0,204,255,0.15)"/>
  <rect x="30" y="115" width="150" height="8" rx="2" fill="rgba(0,204,255,0.15)"/>
  <rect x="30" y="130" width="100" height="8" rx="2" fill="rgba(0,204,255,0.15)"/>
  <text x="110" y="75" font-family="Lexend Exa, sans-serif" font-size="12" fill="#00ccff" font-weight="600" opacity="0.8">EXPLORER</text>
  
  <!-- Center Editor Panel -->
  <rect x="220" y="40" width="700" height="220" rx="8" fill="url(#editorGrad)" stroke="#00ccff" stroke-width="2" filter="url(#glow)"/>
  
  <!-- Editor Tabs -->
  <rect x="230" y="50" width="120" height="25" rx="4" fill="rgba(0,204,255,0.2)" stroke="#00ccff" stroke-width="1.5"/>
  <text x="290" y="67" font-family="Lexend Exa, sans-serif" font-size="11" fill="#00ccff" font-weight="600" text-anchor="middle">*.sysml</text>
  <rect x="360" y="50" width="100" height="25" rx="4" fill="rgba(0,204,255,0.1)" stroke="#00ccff" stroke-width="1" opacity="0.6"/>
  <text x="410" y="67" font-family="Lexend Exa, sans-serif" font-size="11" fill="#00ccff" text-anchor="middle" opacity="0.7">*.rs</text>
  
  <!-- Code Lines (Abstract) -->
  <rect x="250" y="90" width="400" height="3" rx="1" fill="#00ccff" opacity="0.4"/>
  <rect x="250" y="100" width="350" height="3" rx="1" fill="#00ccff" opacity="0.3"/>
  <rect x="250" y="110" width="450" height="3" rx="1" fill="#00ccff" opacity="0.4"/>
  <rect x="250" y="120" width="300" height="3" rx="1" fill="#00ccff" opacity="0.3"/>
  <rect x="250" y="130" width="420" height="3" rx="1" fill="#00ccff" opacity="0.4"/>
  
  <!-- Syntax Highlighting Colors -->
  <rect x="250" y="150" width="80" height="3" rx="1" fill="#ff6600" opacity="0.6"/>
  <rect x="340" y="150" width="200" height="3" rx="1" fill="#00ccff" opacity="0.4"/>
  <rect x="250" y="160" width="60" height="3" rx="1" fill="#ff6600" opacity="0.6"/>
  <rect x="320" y="160" width="180" height="3" rx="1" fill="#00ccff" opacity="0.4"/>
  
  <!-- Line Numbers -->
  <text x="240" y="95" font-family="Lexend Exa, sans-serif" font-size="10" fill="#00ccff" opacity="0.5" text-anchor="end">1</text>
  <text x="240" y="105" font-family="Lexend Exa, sans-serif" font-size="10" fill="#00ccff" opacity="0.5" text-anchor="end">2</text>
  <text x="240" y="115" font-family="Lexend Exa, sans-serif" font-size="10" fill="#00ccff" opacity="0.5" text-anchor="end">3</text>
  
  <!-- Right Panel (AI Assistant) -->
  <rect x="940" y="40" width="240" height="220" rx="8" fill="url(#panelGrad)" stroke="#ff6600" stroke-width="2" opacity="0.6"/>
  <rect x="950" y="60" width="220" height="30" rx="4" fill="rgba(255,102,0,0.2)"/>
  <text x="1060" y="80" font-family="Lexend Exa, sans-serif" font-size="14" fill="#ff6600" font-weight="700" text-anchor="middle">AI Assistant</text>
  
  <!-- Chat Interface -->
  <rect x="960" y="100" width="200" height="15" rx="3" fill="rgba(255,102,0,0.15)"/>
  <rect x="960" y="125" width="180" height="15" rx="3" fill="rgba(255,102,0,0.15)"/>
  <rect x="960" y="150" width="190" height="15" rx="3" fill="rgba(255,102,0,0.15)"/>
  
  <!-- Input Field -->
  <rect x="960" y="200" width="200" height="40" rx="6" fill="rgba(255,102,0,0.1)" stroke="#ff6600" stroke-width="1.5"/>
  <text x="1060" y="225" font-family="Lexend Exa, sans-serif" font-size="11" fill="#ff6600" text-anchor="middle" opacity="0.7">Plan, @ for context...</text>
  
  <!-- Status Bar (Bottom) -->
  <rect x="20" y="280" width="1160" height="20" rx="4" fill="rgba(0,204,255,0.1)" stroke="#00ccff" stroke-width="1"/>
  <text x="40" y="293" font-family="Lexend Exa, sans-serif" font-size="10" fill="#00ccff" opacity="0.8">SysML</text>
  <text x="120" y="293" font-family="Lexend Exa, sans-serif" font-size="10" fill="#00ccff" opacity="0.8">Ln 33, Col 45</text>
  <text x="250" y="293" font-family="Lexend Exa, sans-serif" font-size="10" fill="#00ccff" opacity="0.8">UTF-8</text>
  <text x="350" y="293" font-family="Lexend Exa, sans-serif" font-size="10" fill="#ff6600" opacity="0.8">main</text>
  <text x="420" y="293" font-family="Lexend Exa, sans-serif" font-size="10" fill="#00ccff" opacity="0.8">2↓ 0↑</text>
  
  <!-- Git Branch Icon -->
  <circle cx="1100" cy="290" r="6" fill="none" stroke="#00ccff" stroke-width="1.5"/>
  <path d="M 1100,284 Q 1096,288 1100,292 Q 1104,288 1100,284" fill="#00ccff" opacity="0.6"/>
  <path d="M 1100,296 Q 1096,292 1100,288 Q 1104,292 1100,296" fill="#00ccff" opacity="0.6"/>
  
  <!-- Title Text -->
  <text x="600" y="30" font-family="Lexend Exa, sans-serif" font-size="28" fill="#00ccff" font-weight="700" text-anchor="middle" opacity="0.9">Development Tools</text>
</svg>

